<?xml version="1.0" encoding="utf-8"?>
<!-- Generator: Adobe Illustrator 14.0.0, SVG Export Plug-In . SVG Version: 6.00 Build 43363)  -->
<!DOCTYPE svg PUBLIC "-//W3C//DTD SVG 1.1//EN" "http://www.w3.org/Graphics/SVG/1.1/DTD/svg11.dtd">
<svg version="1.1" id="Layer_1" xmlns="http://www.w3.org/2000/svg" xmlns:xlink="http://www.w3.org/1999/xlink" x="0px" y="0px"
	 width="300px" height="300px" viewBox="0 0 300 300" enable-background="new 0 0 300 300" xml:space="preserve">
<g>
	<g>
		<path fill="#00FF00" d="M150.643,44.924c-15.377,23.632,2.291,49.219,7.517,73.085c1.27,5.796,1.376,11.731,2.078,17.604
			c0.786,6.573,2.061,13.087,3.596,19.522c2.89,12.11,6.971,24.685,14.261,34.911c1.496,2.098,5.1-1.29,3.812-3.096
			c-13.834-19.405-15.789-43.799-18.815-66.597c-3.208-24.175-24.405-50.619-9.009-74.28
			C155.887,43.302,152.119,42.656,150.643,44.924L150.643,44.924z"/>
	</g>
</g>
<g>
	<g>
		<path fill="#00FF00" d="M167.278,49.059c0.088,24.217,4.69,47.147,10.565,70.53c2.762,10.994,5.357,22.008,8.423,32.923
			c2.854,10.165,6.464,20.896,6.649,31.547c0.054,3.091,4.208,1.148,4.168-1.117c-0.167-9.606-2.957-19.076-5.483-28.276
			c-3.1-11.286-5.966-22.59-8.801-33.945c-6.029-24.156-11.263-47.736-11.354-72.778C171.436,44.85,167.27,46.795,167.278,49.059
			L167.278,49.059z"/>
	</g>
</g>
<g>
	<g>
		<path fill="#0000FF" d="M174.755,41.415c2.452,1.964,5.41,3.898,6.867,6.772c1.619,3.193-0.094,8.603-0.595,11.872
			c-0.668,4.356-4.255,8.077-7.159,11.13c-9.783,10.285-22.121,18.359-33.643,26.523c-12.34,8.744-24.95,17.268-36.363,27.225
			c-6.359,5.548-15.896,13.781-15.737,23.121c0.052,3.091,4.207,1.148,4.168-1.117c-0.074-4.331,2.823-7.999,5.501-11.13
			c4.229-4.946,9.344-9.142,14.411-13.19c12.744-10.187,26.4-19.191,39.598-28.768c10.332-7.498,21.759-15.373,29.329-25.849
			c3.311-4.581,4.134-9.026,4.866-14.572c1.034-7.837-2.148-11.136-8.028-15.847C176.123,36.106,172.921,39.945,174.755,41.415
			L174.755,41.415z"/>
	</g>
</g>
<g>
	<g>
		<path fill="#0000FF" d="M182.456,33.048c4.853,6.716,11.447,13.316,15.043,20.846c2.076,4.346-2.813,11.537-4.315,15.417
			c-2.54,6.565-5.165,10.631-10.321,15.519c-6.136,5.816-12.813,11.066-19.396,16.36c-11.6,9.329-25.277,18.643-33.581,31.261
			c-1.258,1.912-2.138,4.014-2.546,6.262c-0.783,4.319-1.943,7.173-4.592,10.843c-4.072,5.642-11.792,12.83-10.45,20.531
			c0.479,2.749,4.503-0.019,4.128-2.172c-0.706-4.051,3.039-8.191,5.281-11.182c2.747-3.664,5.646-7.229,7.819-11.278
			c1.489-2.773,1.367-5.354,2.068-8.245c0.597-2.464,2.37-4.626,3.933-6.544c10.595-12.998,25.521-22.767,38.376-33.354
			c5.732-4.721,11.478-9.563,16.417-15.131c4.616-5.204,6.193-11.553,8.811-17.875c1.756-4.239,4.028-8.441,2.374-13.047
			c-0.948-2.638-3.013-4.979-4.675-7.18c-3.545-4.693-7.117-9.358-10.562-14.126C184.759,27.863,181.159,31.252,182.456,33.048
			L182.456,33.048z"/>
	</g>
</g>
<g>
	<g>
		<path fill="#FF0000" d="M113.021,30.375C102.094,44.078,92.911,59.849,91.5,77.658c-0.92,11.612,2.44,23.044,8.487,32.887
			c3.024,4.922,6.777,9.422,10.742,13.603c4.146,4.371,10.254,7.339,13.881,12.093c3.92,5.139,1.245,12.581,3.18,18.354
			c0.62,1.851,1.838,3.145,3.458,4.171c3.214,2.036,3.775,4.489,3.868,8.294c0.075,3.09,4.224,1.149,4.168-1.117
			c-0.125-5.126-0.929-8.54-5.311-11.316c-4.995-3.166-2.466-12.773-3.899-17.93c-1.188-4.272-4.621-6.666-7.987-9.202
			c-5.808-4.377-10.839-9.652-15.18-15.478c-6.449-8.651-10.561-18.646-11.297-29.456c-1.264-18.555,8.966-35.981,20.095-49.935
			C117.625,30.215,114.958,27.947,113.021,30.375L113.021,30.375z"/>
	</g>
</g>
<text transform="matrix(0.9196 0 0 1 87 233.9014)" font-family="'MyriadPro-Regular'" font-size="33.7113">1     3      2</text>
<g>
	<g>
		<path fill="#FF0000" d="M128.497,37.906c-11.211,9.299-21.44,25.616-16,40.552c4.981,13.676,15.761,24.583,21.17,38.133
			c1.179,2.951,1.916,6.146,1.59,9.327c-0.342,3.342-0.852,6.286-0.093,9.617c1.148,5.043,5.624,8.342,7.836,12.853
			c3.238,6.601,0.165,14.969-0.483,21.867c-0.617,6.569,2.959,12.132,6.576,17.292c1.478,2.108,5.085-1.277,3.812-3.096
			c-3.762-5.366-6.852-10.343-6.03-17.066c0.804-6.576,2.591-13.225,0.794-19.794c-1.237-4.521-4.794-7.559-7.169-11.428
			c-3.254-5.3-0.325-11.491-1.37-17.253c-2.298-12.672-12.101-23.948-18.451-34.79c-3.434-5.863-6.018-11.307-5.335-18.268
			c0.952-9.708,7.598-18.717,14.883-24.759C132.342,39.341,131.039,35.798,128.497,37.906L128.497,37.906z"/>
	</g>
</g>
<g>
	<g>
		<path d="M95.812,209.149c11.242-1.586,21.926-5.682,33.08-7.711c13.808-2.513,25.98,0.982,35.501,11.477
			c1.541,1.698,4.814-2.066,3.215-3.83c-9.061-9.986-20.508-13.963-33.814-12.598c-12.825,1.315-24.862,6.565-37.604,8.363
			C93.942,205.167,92.751,209.581,95.812,209.149L95.812,209.149z"/>
	</g>
</g>
<g>
	<g>
		<path d="M154.393,213.915c3.327,3.146,7.283,5.116,11.896,5.307c1.203,0.049,2.361-1.141,2.68-2.217
			c1.016-3.432,3.376-5.994,5.372-8.88c1.728-2.499-0.904-4.819-2.682-2.25c-2.496,3.609-5.358,6.829-6.628,11.12
			c0.894-0.738,1.786-1.478,2.68-2.217c-3.981-0.163-7.257-2.001-10.104-4.693C155.91,208.48,152.668,212.283,154.393,213.915
			L154.393,213.915z"/>
	</g>
</g>
</svg>
