<?xml version="1.0" encoding="utf-8"?>
<!-- Generator: Adobe Illustrator 14.0.0, SVG Export Plug-In . SVG Version: 6.00 Build 43363)  -->
<!DOCTYPE svg PUBLIC "-//W3C//DTD SVG 1.1//EN" "http://www.w3.org/Graphics/SVG/1.1/DTD/svg11.dtd">
<svg version="1.1" id="Layer_1" xmlns="http://www.w3.org/2000/svg" xmlns:xlink="http://www.w3.org/1999/xlink" x="0px" y="0px"
	 width="300px" height="300px" viewBox="0 0 300 300" enable-background="new 0 0 300 300" xml:space="preserve">
<g>
	<g>
		<path fill="#00FF00" d="M157.265,38.968c-4.771,7.21-8.317,15.385-7.823,24.199c0.441,7.86,3.483,15.142,6.258,22.411
			c3.466,9.08,6.851,19.354,6.127,29.224c-0.188,2.547-7.077,6.79-8.94,8.246c-11.4,8.907-23.543,16.91-34.043,26.923
			c-5.96,5.684-16.488,16.511-10.379,25.405c1.457,2.121,5.07-1.264,3.812-3.096c-6.018-8.762,9.151-20.15,14.715-24.861
			c10.213-8.647,21.508-15.91,31.75-24.51c2.688-2.257,5.693-4.794,7.011-8.144c1.177-2.991,0.064-7.783-0.298-10.844
			c-0.572-4.828-1.842-9.552-3.335-14.167c-2.443-7.55-5.94-14.749-7.722-22.507c-2.275-9.913,0.833-18.854,6.308-27.128
			C162.53,37.36,158.755,36.716,157.265,38.968L157.265,38.968z"/>
	</g>
</g>
<g>
	<g>
		<path fill="#00FF00" d="M173.598,37.415c-4.173,5.703-7.7,11.726-8.817,18.791c-0.964,6.089,0.776,12.258,2.656,17.99
			c2.812,8.577,5.957,16.988,8.202,25.746c1.931,7.536,3.662,13-0.97,19.58c-8.181,11.624-21.181,20.085-32.155,28.829
			c-5.052,4.024-10.067,8.124-14.578,12.759c-2.827,2.905-6.082,6.719-6.261,10.982c-0.13,3.086,4.073,1.134,4.168-1.117
			c0.167-3.947,4.614-7.562,7.242-10.025c4.851-4.546,10.147-8.622,15.358-12.74c10.391-8.212,22.27-16.487,29.747-27.641
			c2.433-3.63,4.26-7.655,3.872-12.109c-0.834-9.578-4.617-19.472-7.745-28.509c-2.206-6.373-4.798-12.744-5.511-19.502
			c-0.818-7.754,3.049-14.738,7.473-20.783C178.084,37.198,175.439,34.898,173.598,37.415L173.598,37.415z"/>
	</g>
</g>
<g>
	<g>
		<path fill="#0000FF" d="M180.385,37.069c3.718,9.396-3.854,19.884-9.458,26.786c-6.9,8.497-15.654,15.97-25.256,21.24
			c-2.107,1.157-2.241,5.398,0.693,3.876c0.503-0.251,0.043-0.204-1.38,0.142c-0.258-0.717-0.517-1.434-0.775-2.15
			c0.815-1.896,1.371-1.782,0.291-0.874c-0.646,0.543-1.283,1.097-1.912,1.66c-2.093,1.875-4.069,3.888-5.921,6
			c-5.038,5.744-9.046,12.589-10.782,20.07c-6.366,27.427,22.316,46.715,42.821,57.746c1.936,1.041,4.66-3.068,2.387-4.291
			c-19.598-10.543-48.413-29.75-40.558-56.139c1.933-6.495,5.976-12.181,10.568-17.07c2.039-2.17,5.843-4.302,7.042-7.092
			c0.309-0.717,0.098-1.927-0.775-2.151c-0.618-0.158-1.149-0.012-1.7,0.273c0.231,1.292,0.462,2.584,0.693,3.876
			c11.567-6.35,21.79-15.545,29.738-26.046c5.984-7.906,12.073-18.894,8.095-28.951C183.292,31.687,179.562,34.991,180.385,37.069
			L180.385,37.069z"/>
	</g>
</g>
<g>
	<g>
		<path fill="#0000FF" d="M195.594,34.048c4.056,10.214,4.928,20.959-1.958,30.107c-4.011,5.328-9.694,8.957-14.171,13.829
			c-0.673,0.732-0.834,0.871-2.497,1.978c-2.181,1.451-4.355,2.91-6.509,4.403c-6.246,4.333-12.286,8.974-17.919,14.084
			c-8.67,7.864-21.716,21.31-15.667,34.154c2.092,4.442,6.591,8.072,9.94,11.515c4.059,4.173,8.348,8.133,12.932,11.722
			c4.385,3.435,9.381,6.684,14.861,8.004c3.228,0.777,5.95-0.341,6.759,2.742c0.716,2.728,4.686-0.049,4.129-2.172
			c-1.521-5.796-8.046-4.302-12.695-6.273c-7.851-3.33-14.501-9.725-20.506-15.582c-6.372-6.215-15.052-12.766-11.982-22.576
			c2.271-7.257,8.53-13.336,13.96-18.345c5.586-5.153,11.694-9.738,17.92-14.084c8.333-5.817,16.244-12,22.982-19.741
			c9.365-10.757,9.301-24.096,4.233-36.86C198.498,28.665,194.77,31.97,195.594,34.048L195.594,34.048z"/>
	</g>
</g>
<g>
	<g>
		<path fill="#FF0000" d="M130.54,37.964c-8.708,14.908-17.337,32.78-13.042,50.473c3.098,12.762,13.165,24.293,21.275,34.205
			c2.032,2.483,4.126,4.405,6.785,6.145c5.274,3.45,9.396,8.985,13.405,13.719c1.223,1.153,1.982,2.58,2.281,4.278
			c-0.65,0.828-1.777,1.474-2.631,2.071c-1.438,1.005-2.991,1.839-4.245,3.081c-3.022,2.993-6.205,5.547-9.602,8.109
			c-6.375,4.808-12.022,10.518-12.351,18.933c-0.121,3.087,4.08,1.135,4.168-1.117c0.377-9.661,9.845-14.158,16.411-19.674
			c2.521-2.118,4.585-4.301,7.35-6.145c2.1-1.399,5.477-3.938,5.468-6.827c-0.011-3.711-3.52-6.42-5.773-9.051
			c-2.53-2.954-5.132-5.867-7.96-8.541c-2.085-1.972-4.64-3.238-6.749-5.15c-4.863-4.411-8.509-10.355-12.39-15.597
			c-3.59-4.851-7.054-9.792-9.504-15.333c-7.827-17.697,1.61-37.134,10.543-52.427C135.646,36.262,131.922,35.599,130.54,37.964
			L130.54,37.964z"/>
	</g>
</g>
<g>
	<g>
		<path fill="#FF0000" d="M150.111,39.528c-11.921,9.841-24.283,28.264-18.733,44.448c2.067,6.028,6.706,11.258,10.825,15.978
			c5.736,6.573,12.1,12.594,18.373,18.645c5.229,5.045,10.549,10.049,15.291,15.565c4.69,5.457,2.568,10.821-0.635,16.825
			c-4.945,9.269-12.657,17.164-22.148,21.681c-3.008,1.432-7.006,3.45-5.29,7.439c0.981,2.28,4.697-1.038,3.812-3.096
			c0.318,0.741-1.1,1.102,0.837,0.158c1.25-0.608,2.513-1.186,3.75-1.82c3.23-1.658,6.173-3.816,8.92-6.175
			c6.462-5.549,12.249-13.24,15.55-21.117c1.723-4.111,3.229-8.903,1.699-13.296c-1.555-4.466-7.312-8.92-10.53-12.15
			c-10.829-10.871-22.884-20.908-31.957-33.378c-4.479-6.155-6.229-11.874-5.025-19.55c1.658-10.583,8.93-20.314,16.993-26.97
			C153.961,40.967,152.657,37.426,150.111,39.528L150.111,39.528z"/>
	</g>
</g>
<g>
	<g>
		<path fill="#00FF00" d="M148.485,131.088c1.214-0.861,2.455-1.938,3.641-2.669c1.004-0.617,1.943-1.755,1.718-3.023
			c-0.203-1.145-1.515-1.403-2.411-0.852c-1.642,1.011-3.11,2.243-4.679,3.356c-0.874,0.62-1.601,2.11-1.04,3.142
			C146.323,132.163,147.695,131.648,148.485,131.088L148.485,131.088z"/>
	</g>
</g>
<g>
	<g>
		<path fill="#00FF00" d="M161.89,113.698c-0.176,1.4-1.475,2.816-2.218,4.031c-0.513,0.837-0.612,2.339,0.526,2.721
			c1.191,0.399,2.348-0.646,2.913-1.57c1.229-2.006,2.646-3.894,2.946-6.299c0.144-1.143-0.825-1.878-1.896-1.591
			C162.955,111.313,162.041,112.482,161.89,113.698L161.89,113.698z"/>
	</g>
</g>
<g>
	<g>
		<path fill="#00FF00" d="M172.532,121.913c-1.382,1.543-2.566,3.253-4.018,4.734c-0.698,0.714-1.161,2.289-0.267,3.04
			c0.979,0.82,2.25-0.077,2.948-0.79c1.451-1.481,2.636-3.191,4.018-4.734c0.666-0.744,1.185-2.27,0.267-3.04
			C174.526,120.323,173.198,121.17,172.532,121.913L172.532,121.913z"/>
	</g>
</g>
<g>
	<g>
		<path fill="#00FF00" d="M162.104,132.491c-1.851,1.524-4.008,2.631-5.739,4.304c-0.783,0.757-1.657,2.008-1.041,3.142
			c0.56,1.027,2.062,0.732,2.771,0.046c1.732-1.673,3.89-2.778,5.739-4.304c0.833-0.687,1.628-2.062,1.041-3.142
			C164.29,131.461,162.858,131.87,162.104,132.491L162.104,132.491z"/>
	</g>
</g>
<text transform="matrix(1 0 0 1 98 224.167)"><tspan x="0" y="0" font-family="'MyriadPro-Regular'" font-size="31">2</tspan><tspan x="15.902" y="0" font-family="'MyriadPro-Regular'" font-size="31" letter-spacing="13">	</tspan><tspan x="36" y="0" font-family="'MyriadPro-Regular'" font-size="31"> 3</tspan><tspan x="58.475" y="0" font-family="'MyriadPro-Regular'" font-size="31" letter-spacing="6">	</tspan><tspan x="72" y="0" font-family="'MyriadPro-Regular'" font-size="31">  1</tspan></text>
<g>
	<g>
		<path d="M184.193,197.854c-11.14-2.513-21.198-7.365-32.894-6.449c-8.799,0.689-15.123,6.01-21.141,11.97
			c-2.219,2.198,0.522,4.389,2.682,2.25c6.333-6.273,12.224-9.907,21.354-9.947c9.59-0.041,18.413,4.394,27.611,6.468
			C183.99,202.639,186.607,198.398,184.193,197.854L184.193,197.854z"/>
	</g>
</g>
<g>
	<g>
		<path d="M125.531,202.495c-0.526,2.291-0.778,4.802-0.095,7.091c0.193,0.648,0.608,1.158,1.353,1.136
			c2.669-0.081,5.192-1.12,7.558-2.284c1.04-0.511,1.929-1.834,1.717-3.023c-0.216-1.217-1.485-1.307-2.411-0.852
			c-1.697,0.835-3.523,1.658-5.442,1.716c0.451,0.379,0.902,0.757,1.353,1.136c-0.47-1.575-0.463-3.311-0.095-4.909
			C130.202,199.314,126.084,200.09,125.531,202.495L125.531,202.495z"/>
	</g>
</g>
</svg>
