<?xml version="1.0" encoding="utf-8"?>
<!-- Generator: Adobe Illustrator 14.0.0, SVG Export Plug-In . SVG Version: 6.00 Build 43363)  -->
<!DOCTYPE svg PUBLIC "-//W3C//DTD SVG 1.1//EN" "http://www.w3.org/Graphics/SVG/1.1/DTD/svg11.dtd">
<svg version="1.1" id="Layer_1" xmlns="http://www.w3.org/2000/svg" xmlns:xlink="http://www.w3.org/1999/xlink" x="0px" y="0px"
	 width="300px" height="300px" viewBox="0 0 300 300" enable-background="new 0 0 300 300" xml:space="preserve">
<g>
	<g>
		<path fill="#00FF00" d="M156.63,37.112c-4.771,7.21-8.317,15.385-7.823,24.199c0.441,7.86,3.483,15.142,6.258,22.411
			c3.466,9.08,6.851,19.354,6.127,29.224c-0.188,2.547-7.077,6.79-8.939,8.246c-11.401,8.907-23.543,16.91-34.044,26.923
			c-5.96,5.684-16.489,16.511-10.379,25.405c1.457,2.121,5.07-1.264,3.812-3.096c-6.018-8.762,9.151-20.15,14.715-24.861
			c10.213-8.647,21.508-15.91,31.75-24.51c2.688-2.257,5.693-4.794,7.011-8.144c1.177-2.991,0.064-7.783-0.298-10.844
			c-0.572-4.828-1.842-9.552-3.335-14.167c-2.442-7.55-5.94-14.749-7.721-22.507c-2.275-9.913,0.832-18.854,6.307-27.128
			C161.896,35.503,158.12,34.859,156.63,37.112L156.63,37.112z"/>
	</g>
</g>
<g>
	<g>
		<path fill="#00FF00" d="M172.963,35.559c-4.173,5.703-7.7,11.726-8.817,18.791c-0.964,6.089,0.776,12.258,2.656,17.99
			c2.812,8.577,5.957,16.988,8.202,25.746c1.931,7.536,3.662,13-0.97,19.58c-8.181,11.624-21.181,20.085-32.155,28.829
			c-5.052,4.024-10.067,8.124-14.578,12.759c-2.827,2.905-6.082,6.719-6.261,10.982c-0.13,3.086,4.073,1.134,4.168-1.117
			c0.167-3.947,4.614-7.562,7.242-10.025c4.851-4.546,10.147-8.622,15.358-12.74c10.391-8.212,22.27-16.487,29.747-27.641
			c2.433-3.63,4.26-7.655,3.872-12.109c-0.834-9.578-4.617-19.472-7.745-28.509c-2.206-6.373-4.798-12.744-5.511-19.502
			c-0.818-7.754,3.049-14.738,7.473-20.783C177.449,35.341,174.805,33.042,172.963,35.559L172.963,35.559z"/>
	</g>
</g>
<g>
	<g>
		<path fill="#0000FF" d="M179.75,44.213c3.718,9.396-3.854,19.884-9.458,26.786c-6.9,8.497-15.654,15.97-25.256,21.24
			c-2.116,1.162-2.208,5.433,0.693,3.876c0.042-0.023,0.085-0.046,0.128-0.068c-0.404-1.177-0.808-2.354-1.212-3.532
			c1.104-0.785-0.202,0.082-0.475,0.248c-0.823,0.5-1.631,1.024-2.434,1.556c-2.667,1.769-5.238,3.665-7.709,5.699
			c-6.597,5.428-12.547,11.978-16.332,19.691c-13.274,27.049,14.451,47.709,35.412,59c1.935,1.042,4.66-3.066,2.387-4.291
			c-19.538-10.525-46.941-30.325-33.324-55.568c5.574-10.333,14.957-16.573,24.206-23.146c1.802-1.28,1.411-4.899-1.212-3.532
			c-0.043,0.022-0.085,0.045-0.128,0.068c0.231,1.292,0.462,2.584,0.693,3.876c11.567-6.35,21.79-15.545,29.738-26.046
			c5.984-7.906,12.073-18.894,8.095-28.951C182.657,38.83,178.928,42.135,179.75,44.213L179.75,44.213z"/>
	</g>
</g>
<g>
	<g>
		<path fill="#0000FF" d="M188.936,42.535c3.669,8.923,9.231,19.483,8.956,29.433c-0.128,4.614-3.58,8.892-6.969,11.729
			c-5.575,4.668-12.377,8.004-18.76,11.398c-7.808,4.152-15.708,8.128-23.412,12.473c-8.725,4.92-25.584,13.203-25.096,25.299
			c0.086,2.137,1.337,4.012,2.668,5.58c4.536,5.347,9.47,10.42,14.371,15.432c4.596,4.699,9.343,9.381,14.633,13.307
			c3.326,2.469,4.039,2.253,4.943,5.872c0.684,2.733,4.661-0.043,4.129-2.172c-1.251-5.005-3.769-5.827-7.698-8.945
			c-6.389-5.067-12.077-11.058-17.67-16.964c-3.54-3.739-8.454-7.71-10.774-12.343c-1.039-2.074-0.195-4.387,1.04-6.157
			c3.955-5.671,10.808-9.525,16.608-12.984c7.573-4.516,15.461-8.495,23.269-12.582c11.113-5.816,24.018-11.421,30.66-22.65
			c2.203-3.726,2.523-7.887,1.949-12.095c-1.254-9.181-5.552-18.252-9.035-26.726C191.809,37.155,188.085,40.466,188.936,42.535
			L188.936,42.535z"/>
	</g>
</g>
<g>
	<g>
		<path fill="#FF0000" d="M129.905,36.108c-8.843,15.139-17.625,33.404-12.813,51.325c1.61,5.996,4.814,11.379,8.329,16.435
			c4.138,5.952,8.46,11.944,13.608,17.065c3.842,3.821,8.456,6.541,12.698,9.853c5.326,4.156,8.48,10.121,11.149,16.198
			c3.41,7.762,4.162,17.272,13.083,20.502c6.393,2.314,15.933,0.317,16.238,9.636c0.102,3.089,4.242,1.15,4.168-1.117
			c-0.21-6.406-3.116-9.852-9.379-11.104c-3.188-0.639-6.393-0.892-9.473-2.007c-4.709-1.704-6.017-6.117-7.512-10.434
			c-2.551-7.362-5.531-15.17-10.638-21.192c-3.252-3.834-7.405-6.389-11.42-9.325c-5.831-4.265-10.31-9.734-14.586-15.502
			c-3.774-5.09-7.526-10.202-10.211-15.971c-8.342-17.921,1.083-37.605,10.197-53.209C135.011,34.406,131.287,33.742,129.905,36.108
			L129.905,36.108z"/>
	</g>
</g>
<g>
	<g>
		<path fill="#FF0000" d="M149.477,37.672c-12.071,9.963-24.735,28.938-18.43,45.238c2.495,6.451,7.57,12.025,12.12,17.1
			c6.125,6.833,12.833,13.137,19.426,19.512c9.098,8.798,17.201,18.082,24.406,28.507c5.936,8.586,11.927,17.003,18.001,25.491
			c1.5,2.096,5.103-1.293,3.812-3.096c-5.656-7.903-11.393-15.574-16.775-23.67c-5.498-8.268-11.606-16.366-18.535-23.473
			c-11.27-11.561-23.957-21.987-33.649-34.994c-4.788-6.426-6.909-12.344-5.638-20.458c1.658-10.583,8.93-20.314,16.993-26.97
			C153.326,39.11,152.022,35.57,149.477,37.672L149.477,37.672z"/>
	</g>
</g>
<text transform="matrix(1 0 0 1 100 224.667)"><tspan x="0" y="0" font-family="'MyriadPro-Regular'" font-size="31">3</tspan><tspan x="15.902" y="0" font-family="'MyriadPro-Regular'" font-size="31" letter-spacing="13">	</tspan><tspan x="36" y="0" font-family="'MyriadPro-Regular'" font-size="31"> 2</tspan><tspan x="58.475" y="0" font-family="'MyriadPro-Regular'" font-size="31" letter-spacing="6">	</tspan><tspan x="72" y="0" font-family="'MyriadPro-Regular'" font-size="31">  1</tspan></text>
<g>
	<g>
		<path d="M112.531,197.931c7.773-7.254,19.194-7.318,29.205-6.782c11.61,0.621,19.003,8.334,26.989,15.77
			c1.712,1.594,4.951-2.214,3.215-3.83c-8.63-8.033-16.361-15.605-28.782-16.383c-11.167-0.698-23.751,0.008-32.358,8.038
			C108.82,196.59,110.111,200.188,112.531,197.931L112.531,197.931z"/>
	</g>
</g>
<g>
	<g>
		<path d="M163.139,209.148c2.458,0.615,4.921,1.222,7.333,2c0.986,0.318,1.895-0.355,2.534-1.021
			c1.675-1.741,3.232-3.751,4.379-5.883c1.562-2.902-2.132-3.581-3.439-1.15c-0.945,1.756-2.241,3.351-3.621,4.783
			c0.845-0.34,1.689-0.681,2.534-1.021c-2.413-0.778-4.875-1.385-7.333-2C163.351,204.312,160.722,208.544,163.139,209.148
			L163.139,209.148z"/>
	</g>
</g>
<g>
	<g>
		<path fill="#00FF00" d="M147.85,129.231c1.215-0.861,2.455-1.938,3.642-2.669c1.004-0.617,1.943-1.755,1.718-3.023
			c-0.203-1.145-1.515-1.403-2.411-0.852c-1.642,1.011-3.11,2.243-4.679,3.356c-0.874,0.62-1.602,2.11-1.041,3.142
			C145.688,130.307,147.061,129.792,147.85,129.231L147.85,129.231z"/>
	</g>
</g>
<g>
	<g>
		<path fill="#00FF00" d="M161.255,111.842c-0.176,1.4-1.475,2.816-2.218,4.031c-0.513,0.837-0.612,2.339,0.526,2.721
			c1.191,0.399,2.348-0.646,2.913-1.57c1.229-2.006,2.646-3.894,2.946-6.299c0.144-1.143-0.825-1.878-1.896-1.591
			C162.32,109.457,161.406,110.626,161.255,111.842L161.255,111.842z"/>
	</g>
</g>
<g>
	<g>
		<path fill="#00FF00" d="M171.897,120.057c-1.382,1.543-2.566,3.253-4.018,4.734c-0.698,0.714-1.161,2.289-0.267,3.04
			c0.979,0.82,2.25-0.077,2.948-0.79c1.451-1.481,2.636-3.191,4.018-4.734c0.666-0.744,1.185-2.27,0.267-3.04
			C173.892,118.467,172.563,119.313,171.897,120.057L171.897,120.057z"/>
	</g>
</g>
<g>
	<g>
		<path fill="#00FF00" d="M161.47,130.635c-1.851,1.524-4.008,2.631-5.739,4.304c-0.783,0.757-1.657,2.008-1.041,3.142
			c0.56,1.027,2.062,0.732,2.771,0.046c1.732-1.673,3.89-2.778,5.739-4.304c0.833-0.687,1.628-2.062,1.041-3.142
			C163.655,129.604,162.224,130.014,161.47,130.635L161.47,130.635z"/>
	</g>
</g>
</svg>
