<?xml version="1.0" encoding="utf-8"?>
<!-- Generator: Adobe Illustrator 14.0.0, SVG Export Plug-In . SVG Version: 6.00 Build 43363)  -->
<!DOCTYPE svg PUBLIC "-//W3C//DTD SVG 1.1//EN" "http://www.w3.org/Graphics/SVG/1.1/DTD/svg11.dtd">
<svg version="1.1" id="Layer_1" xmlns="http://www.w3.org/2000/svg" xmlns:xlink="http://www.w3.org/1999/xlink" x="0px" y="0px"
	 width="300px" height="300px" viewBox="0 0 300 300" enable-background="new 0 0 300 300" xml:space="preserve">
<g>
	<g>
		<path fill="#00FF00" d="M140.265,47.968c-4.657,7.022-8.321,14.923-6.615,23.503c1.306,6.568,5.518,12.142,7.006,18.679
			c2.143,9.408-1.254,19.815-8.973,25.506c-8.498,6.267-18.421,10.309-26.867,16.726c-4.766,3.621-12.574,9.52-10.9,16.454
			c1.392,5.768,7.44,10.313,11.777,13.82c6.72,5.435,13.958,10.203,20.881,15.368c5.141,3.836,11.729,8.271,14.374,14.363
			c0.126,0.335,0.22,0.679,0.282,1.03c0.605,2.742,4.601-0.03,4.128-2.172c-1.193-5.401-6.164-9.476-10.196-12.846
			c-6.575-5.495-13.775-10.227-20.671-15.301c-5.49-4.039-11.775-8.383-15.438-14.27c-1.449-2.33-1.613-4.125,0.099-6.253
			c3.972-4.937,9.354-8.683,14.684-12.002c7.809-4.862,16.723-8.555,23.463-14.951c5.876-5.578,8.454-15.136,8.044-23.061
			c-0.351-6.803-3.41-12.477-6.036-18.602c-3.872-9.027-0.796-17.012,4.397-24.842C145.533,46.362,141.757,45.718,140.265,47.968
			L140.265,47.968z"/>
	</g>
</g>
<g>
	<g>
		<path fill="#00FF00" d="M156.598,46.415c-6.257,8.679-10.08,18.102-10.267,28.874c-0.16,9.221,2.78,18.101,3.108,27.267
			c0.427,11.934-10.158,17.945-19.199,23.448c-5.188,3.156-10.596,5.984-15.515,9.56c-3.352,2.436-8.404,6.264-10.018,10.232
			c-1.398,3.438,1.665,6.455,4.011,8.521c4.952,4.36,10.999,7.604,16.706,10.843c6.509,3.693,13.137,7.177,19.618,10.921
			c2.646,1.528,9.813,4.559,10.832,7.833c0.841,2.7,4.78-0.078,4.129-2.172c-1.012-3.25-4.892-5.284-7.566-6.979
			c-5.543-3.515-11.388-6.571-17.136-9.73c-2.428-1.334-28.998-15.909-26.909-18.672c7.324-9.688,19.936-14.535,29.813-21.1
			c6.463-4.295,13.781-10.298,15.047-18.474c1.256-8.105-1.023-16.297-2.137-24.288c-1.726-12.387,0.804-23.625,8.164-33.834
			C161.064,46.189,158.423,43.884,156.598,46.415L156.598,46.415z"/>
	</g>
</g>
<g>
	<g>
		<path fill="#0000FF" d="M169.511,43.599c1.676,4.199-2.355,6.831-5.479,8.802c-5.464,3.448-11.482,6.039-17.237,8.951
			c-12.85,6.503-25.495,14.462-32.901,27.216c1.146,0.384,2.293,0.768,3.439,1.151c1.119-2.18-0.504-3.736-2.605-2.56
			c-1.666,0.933-3.067,2.39-4.312,3.81c-4.307,4.912-6.75,11.4-6.886,17.911c-0.235,11.168,6.199,21.093,13.398,29.082
			c15.504,17.203,37.336,28.727,57.878,38.684c1.993,0.967,4.706-3.167,2.387-4.291c-18.508-8.972-36.997-19.163-52.15-33.263
			c-7.594-7.066-14.764-15.891-16.858-26.306c-1.152-5.73-0.206-11.61,2.771-16.633c0.814-1.375,2.48-3.382,3.189-4.053
			c0.434-0.411,0.894-0.794,1.38-1.142c-0.625,0.447-0.104,0.073,0.067-0.016c-0.886,0.46-2.589-0.641-1.699-2.375
			c-1.516,2.954,2.068,3.514,3.439,1.151c8.562-14.743,24.91-21.84,39.505-29.149c7.228-3.619,20.589-9.781,16.485-20.067
			C172.41,38.216,168.683,41.522,169.511,43.599L169.511,43.599z"/>
	</g>
</g>
<g>
	<g>
		<path fill="#0000FF" d="M178.594,43.048c2.967,7.469,3.889,14.93-4.336,18.67c-5.656,2.573-12.16,2.927-18.097,4.6
			c-4.481,1.263-6.595,3.573-9.519,5.623c-5.603,3.93-10.995,8.137-15.89,12.93c-5.405,5.291-10.467,11.518-12.499,18.938
			c-2.436,8.895,2.382,15.088,8.189,21.237c15.435,16.344,33.895,27.966,54.189,37.23c3.336,1.523,10.773,3.726,11.972,7.808
			c0.796,2.711,4.747-0.066,4.129-2.172c-1.181-4.021-5.413-5.946-8.885-7.667c-7.056-3.498-14.303-6.527-21.228-10.303
			c-11.08-6.041-21.212-13.676-30.442-22.254c-7.714-7.17-17.342-14.92-13.186-26.387c4.672-12.89,17.937-19.507,27.699-27.844
			c8.425-7.195,22.265-3.401,30.399-12.018c5.767-6.109,4.142-14.373,1.316-21.487C181.497,37.665,177.77,40.971,178.594,43.048
			L178.594,43.048z"/>
	</g>
</g>
<g>
	<g>
		<path fill="#FF0000" d="M113.54,46.964c-8.168,13.988-20.56,36.836-8.384,52.139c4.064,5.107,10.199,8.021,16.261,10.039
			c8.73,2.906,17.968,4.709,27.065,6.037c4.458,0.65,8.172,1.939,11.487,5.172c4.615,4.503-9.774,12.405-12.417,13.998
			c-4.541,2.736-9.617,4.8-13.415,8.535c-6.273,6.169-14.108,10.872-20.963,16.361c-6.507,5.211-16.176,12.679-16.59,21.847
			c-0.14,3.085,4.066,1.132,4.168-1.117c0.374-8.263,11.201-15.266,17.021-19.808c6.498-5.072,13.779-9.532,19.506-15.512
			c3.036-3.169,10.645-6.119,14.997-8.95c4.7-3.058,11.688-7.551,12.63-13.651c1.688-10.933-17.678-11.604-24.076-12.904
			c-14.754-2.999-35.08-6.892-36.404-25.276c-0.9-12.484,6.529-25.438,12.555-35.758C118.646,45.262,114.921,44.599,113.54,46.964
			L113.54,46.964z"/>
	</g>
</g>
<g>
	<g>
		<path fill="#FF0000" d="M129.134,46.95c-8.8,7.372-13.565,17.602-14.724,28.927c-0.763,7.456-0.566,15.724,6.671,19.66
			c14.462,7.865,32.782,4.684,48.062,10.292c26.541,9.741-15.319,35.974-23.927,42.508c-8.192,6.219-15.986,13.002-23.469,20.052
			c-5.19,4.89-11.153,10.104-14.667,16.411c-0.757,1.359-1.176,2.812-0.652,4.311c0.801,2.29,4.546-0.995,3.812-3.096
			c0.257,0.735,0.613-0.709,1.114-1.427c0.883-1.265,1.901-2.438,2.911-3.601c2.876-3.315,6.036-6.389,9.214-9.411
			c7.452-7.088,15.312-13.789,23.469-20.052c9.419-7.232,19.552-13.299,27.684-22.1c5.118-5.539,9.687-13.391,5.991-20.856
			c-3.012-6.085-11.149-7.997-17.151-9.256c-8.698-1.826-17.611-2.399-26.362-3.904c-5.72-0.983-15.714-2.446-17.925-8.935
			c-1.872-5.493-0.817-12.843,0.5-18.349c1.695-7.089,5.617-13.324,11.183-17.987C132.969,48.376,131.667,44.829,129.134,46.95
			L129.134,46.95z"/>
	</g>
</g>
<g>
	<g>
		<path fill="#00FF00" d="M140.916,94.891c0,2.556,0,5.111,0,7.666c0,3.092,4.168,1.146,4.168-1.117c0-2.556,0-5.111,0-7.666
			C145.084,90.682,140.916,92.627,140.916,94.891L140.916,94.891z"/>
	</g>
</g>
<g>
	<g>
		<path fill="#00FF00" d="M148.916,96.557c0,2.223,0,4.445,0,6.667c0,3.092,4.168,1.146,4.168-1.117c0-2.223,0-4.445,0-6.667
			C153.084,92.348,148.916,94.293,148.916,96.557L148.916,96.557z"/>
	</g>
</g>
<g>
	<g>
		<path fill="#00FF00" d="M148.27,110.418c0.083,0.675,0.071,1.315-0.133,1.965c-0.069,0.219-0.063,0.167-0.26,0.401
			c0.152-0.18-0.548,0.271-0.557,0.275c0.772,0.647,1.543,1.295,2.315,1.943c0.271-0.915,1.049-1.556,1.705-2.213
			c0.705-0.708,1.155-2.294,0.267-3.04c-0.983-0.825-2.243,0.084-2.948,0.79c-1.287,1.29-2.434,2.674-2.961,4.453
			c-0.493,1.663,0.792,2.658,2.315,1.942c3.378-1.585,4.823-5.124,4.385-8.689c-0.15-1.219-1.539-1.31-2.411-0.852
			C148.912,107.959,148.118,109.184,148.27,110.418L148.27,110.418z"/>
	</g>
</g>
<g>
	<g>
		<path fill="#00FF00" d="M138.659,106.54c-1.521,1.882-2.529,4.097-4,6c-0.61,0.79-1.224,2.236-0.266,3.04
			c0.915,0.768,2.337,0,2.948-0.79c1.475-1.909,2.485-4.125,4-6c0.627-0.776,1.212-2.246,0.266-3.04
			C140.681,104.973,139.287,105.764,138.659,106.54L138.659,106.54z"/>
	</g>
</g>
<g>
	<g>
		<path fill="#00FF00" d="M112.893,157.415c3.371,1.95,6.108,4.875,9.567,6.663c3.461,1.79,7.587,2.409,10.683,4.837
			c1.864,1.461,5.061-2.383,3.214-3.83c-2.795-2.191-6.22-3.02-9.472-4.301c-4.03-1.589-7.061-5.048-10.778-7.199
			C114.047,152.393,110.931,156.28,112.893,157.415L112.893,157.415z"/>
	</g>
</g>
<g>
	<g>
		<path fill="#00FF00" d="M105.143,162.665c5.734,5.119,12.311,9.138,18.25,14c1.828,1.497,5.036-2.339,3.214-3.83
			c-5.939-4.862-12.516-8.881-18.25-14C106.605,157.271,103.376,161.088,105.143,162.665L105.143,162.665z"/>
	</g>
</g>
<text transform="matrix(-0.0397 1.1887 -0.9994 -0.0334 82.3887 197.8145)" fill="#FF0000" font-family="'MyriadPro-Regular'" font-size="56.7252">]</text>
<text transform="matrix(-0.0177 1.1893 -0.9999 -0.0148 135.7554 199.6172)" fill="#00FF00" font-family="'MyriadPro-Regular'" font-size="56.7252">]</text>
<text transform="matrix(-0.0397 1.1887 -0.9994 -0.0334 186.3887 199.3408)" fill="#0000FF" font-family="'MyriadPro-Regular'" font-size="56.7252">]</text>
<text transform="matrix(1 0 0 1 77.084 240.043)"><tspan x="0" y="0" font-family="'MyriadPro-Regular'" font-size="31">1</tspan><tspan x="15.902" y="0" font-family="'MyriadPro-Regular'" font-size="31" letter-spacing="13">	</tspan><tspan x="36" y="0" font-family="'MyriadPro-Regular'" font-size="31">     2</tspan><tspan x="84.762" y="0" font-family="'MyriadPro-Regular'" font-size="31" letter-spacing="16">	</tspan><tspan x="108" y="0" font-family="'MyriadPro-Regular'" font-size="31">  3</tspan></text>
<g>
	<g>
		<path fill="#FF0000" d="M113.081,50.676c-0.957,11.267-7.037,21.323-8,32.667c4.148-1.645,8.297-3.289,12.445-4.934
			c-1.368-6.03,0.327-11.574,2.967-17.016c-3.804-0.017-7.608-0.033-11.413-0.05c-0.248,5.626-3.111,10.824-4.667,16.167
			c-1.686,5.79-1.722,11.829,1.177,17.226c4.912,9.145,17.628,11.908,26.83,14.034c6.544,1.512,14.405-11.2,7.159-12.874
			c-7.198-1.664-17.105-3.294-21.945-9.517c-3.135-4.032-1.573-8.695-0.062-13.032c1.756-5.04,3.775-9.955,4.014-15.357
			c0.342-7.777-9.104-4.808-11.413-0.05c-4.089,8.428-7.169,17.565-5.033,26.984c1.843,8.125,12.004,0.261,12.445-4.934
			c0.956-11.267,7.037-21.324,8-32.667c0.289-3.409-2.374-5.661-5.688-4.772C116.383,43.494,113.39,47.043,113.081,50.676
			L113.081,50.676z"/>
	</g>
</g>
<g>
	<g>
		<path fill="#FF0000" d="M150.513,112.079c3.006,2.036,6.207,3.758,9.164,5.87c1.25,0.893,2.444,1.883,3.275,3.177
			c0.103,0.109,0.191,0.227,0.269,0.354c-0.005-1.051-0.292-0.147-1.242,0.812c3.061,1.701,6.121,3.401,9.182,5.102
			c3.338-6.354,8.984-13.571,5.892-21.037c-2.771-6.688-13.182,2.616-11.91,7.901c0.52,2.163,1.067,3.056-0.553,4.504
			c-2.338,2.091-4.888,3.982-7.293,5.999c-6.41,5.374-11.853,11.748-18.559,16.792c2.585,2.169,5.171,4.339,7.756,6.508
			c1.94-3.285,5.606-5.167,8.797-7.055c3.96-2.344,7.946-4.717,11.306-7.891c2.372-2.241,4.958-6.047,3.121-9.424
			c-1.688-3.104-6.163-2.171-8.314-0.139c-8.268,7.812-19.125,10.719-25.229,21.055c-3.696,6.259,2.354,10.571,7.756,6.508
			c8.552-6.433,15.59-14.617,23.988-21.263c7.083-5.604,11.846-12.803,9.607-22.11c-3.97,2.634-7.94,5.267-11.91,7.9
			c-0.23-0.556-1.53,2.492-1.843,3.07c-0.952,1.758-2.003,3.457-2.934,5.228c-1.172,2.231-1.906,5.588,0.339,7.472
			c2.942,2.469,6.737-0.244,8.843-2.37c4.676-4.722,7.818-11.829,3.874-17.969c-3.156-4.912-9.079-7.329-13.74-10.484
			C154.241,96.585,144.768,108.19,150.513,112.079L150.513,112.079z"/>
	</g>
</g>
<g>
	<g>
		<path fill="#FF0000" d="M128.597,162.448c2.682-2.51,5.706-4.511,8.667-6.667c-1.731-3.188-3.462-6.375-5.193-9.562
			c-13.094,9.738-24.159,21.255-31.896,35.722c3.784-0.511,7.568-1.021,11.352-1.531c-1.432-6.819,5.76-11.87,10.522-15.455
			c6.06-4.561,12.895-8.087,19.658-11.474c3.112-1.559,5.791-5.484,5.153-9.071c-0.646-3.636-4.463-3.942-7.232-2.556
			c-15.911,7.968-45.116,23.018-40.486,45.071c1.384,6.591,9.376,2.164,11.352-1.531c6.529-12.208,15.734-21.404,26.77-29.612
			c2.584-1.922,4.829-6.285,3.121-9.424c-1.818-3.342-5.963-1.851-8.314-0.139c-2.961,2.156-5.984,4.157-8.667,6.667
			c-2.381,2.229-4.953,6.057-3.121,9.424C121.976,165.423,126.438,164.469,128.597,162.448L128.597,162.448z"/>
	</g>
</g>
<g>
	<g>
		<path fill="#00FF00" d="M139.747,49.343c-0.206,1.361-0.451,2.478-1.127,4.454c-0.316,0.816-0.35,0.917-0.101,0.3
			c-0.206,0.42-0.432,0.828-0.678,1.225c0.209-0.431,0.512-0.782,0.909-1.053c0.253-0.243,1.929-0.686,0.482-0.383
			c-0.376,4.299-0.753,8.598-1.13,12.897c5.271-1.282,9.557-3.636,13.369-7.479c3.547-3.576,5.301-8.842,6.436-13.622
			c0.706-2.977,0.051-6.673-3.773-6.678c-3.5-0.005-7.243,3.297-8.039,6.65c-0.353,1.486-0.746,2.952-1.23,4.4
			c-0.056,0.168-0.94,2.189-0.256,0.727c-0.193,0.413-1.643,2.534-0.43,0.899c-0.256,0.345-1.597,1.583-0.157,0.267
			c-0.296,0.257-0.603,0.5-0.922,0.727c0.721-0.475,0.717-0.498-0.012-0.069c-0.01,0.006-1.917,0.817-0.875,0.433
			c-0.969,0.358-1.978,0.605-2.979,0.849c-3.528,0.858-6.505,4.554-6.818,8.125c-0.312,3.559,2.38,5.463,5.688,4.772
			c9.285-1.94,12.906-12.585,14.151-20.792c0.521-3.437-2.544-5.615-5.688-4.772C142.875,42.208,140.302,45.689,139.747,49.343
			L139.747,49.343z"/>
	</g>
</g>
<g>
	<g>
		<path fill="#00FF00" d="M138.414,82.01c0.097,5.347,0.97,10.637,1.535,15.946c0.302,2.834,0.515,5.663,0.466,8.513
			c-0.021,1.272-0.16,2.532-0.35,3.788c-0.075-0.33-0.164-0.121-0.267,0.625c0.484-1.29,1.316-2.299,2.496-3.028
			c2.252,0.39,4.505,0.78,6.757,1.17c-0.121,0.229-0.242,0.457-0.363,0.685c-3.425-0.566-6.85-1.132-10.274-1.698
			c-0.182,0.949-0.815,2.825-1.849,3.208c-3.486,1.292-6.477,4.238-6.818,8.125c-0.277,3.162,2.405,5.989,5.688,4.772
			c8.702-3.227,13.768-10.521,15.485-19.458c1.345-6.999-7.606-4.869-10.274-1.698c-3.91,4.645-5.189,9.641-3.029,15.35
			c1.025,2.709,4.813,2.156,6.757,1.171c14.448-7.323,6.75-29.499,6.546-40.823C150.752,69.385,138.292,75.212,138.414,82.01
			L138.414,82.01z"/>
	</g>
</g>
<g>
	<g>
		<path fill="#00FF00" d="M107.403,128.219c-5.105,4.988-11.152,9.796-10.862,17.653c0.277,7.519,5.736,12.912,10.626,18.113
			c10.223,10.873,23.989,21.284,37.92,26.786c6.238,2.463,14.299-10.055,7.159-12.875c-11.347-4.48-21.141-12.693-30.405-20.447
			c-3.848-3.221-7.417-7.201-10.436-11.196c-0.917-1.215-2.829-3.552-2.42-5.255c-0.4,1.667-0.302,0.521,0.491-0.24
			c1.037-0.996,2.091-1.972,3.12-2.977c2.338-2.285,4.977-6.014,3.121-9.424C114.046,125.285,109.525,126.146,107.403,128.219
			L107.403,128.219z"/>
	</g>
</g>
<g>
	<g>
		<path fill="#0000FF" d="M167.747,42.676c-0.098,2.772,0.146,5.237,1.096,7.848c0.336,0.922,0.706,1.816,1.101,2.715
			c1.381,3.148,5.275-4.842,2.366-3.274c-4.5,2.425-9.818,3.515-14.532,5.506c-12.97,5.478-23.824,14.279-34.374,23.415
			c-2.455,2.125-4.911,6.135-3.121,9.424c1.758,3.231,6.052,2.001,8.314,0.138c1.517-1.25,2.917-2.483,4.092-4.074
			c1.779-2.407,3.708-6.679,0.799-9.12c-2.708-2.272-7.062-0.039-8.843,2.371c-0.298,0.527-0.712,0.948-1.242,1.26
			c1.731,3.188,3.462,6.375,5.193,9.562c11.175-9.677,22.31-18.319,36.417-23.229c6.58-2.29,12.212-4.115,16.152-10.236
			c3.805-5.912-1.115-9.947-0.913-15.66C180.58,30.062,167.986,35.917,167.747,42.676L167.747,42.676z"/>
	</g>
</g>
<g>
	<g>
		<path fill="#0000FF" d="M105.808,113.592c3.631,11.474,12.206,21.687,22.039,28.487c-0.362-1.92-0.724-3.84-1.085-5.759
			c-0.066,0.263-0.132,0.526-0.198,0.789c1.622-1.933,3.244-3.866,4.867-5.799c-0.399,0.138-0.777,0.318-1.136,0.543
			c-2.725,1.469-4.938,4.347-5.213,7.49c-0.278,3.178,2.402,5.968,5.688,4.772c1.667-0.607,3.09-1.211,4.495-2.335
			c2.487-1.99,5.835-7.895,2.224-10.526c-3.568-2.601-7.775-4.073-11.333-6.666c-3.149-2.295-3.526-6.522-5.77-9.564
			c-4.592-6.228-15.373,3.946-11.436,9.285c2.569,3.485,3.311,7.52,6.333,10.769c3.314,3.562,8.693,4.846,12.564,7.667
			c0.741-3.509,1.483-7.018,2.224-10.526c0.61-0.334,1.219-0.667,1.829-1.001c0.158,4.088,0.316,8.176,0.475,12.263
			c3.023-1.63,5.327-3.646,6.199-7.133c0.453-1.811,0.747-4.492-1.085-5.759c-8.025-5.552-16.284-14-19.295-23.513
			C115.632,98.987,103.822,107.32,105.808,113.592L105.808,113.592z"/>
	</g>
</g>
<g>
	<g>
		<path fill="#0000FF" d="M144.513,157.412c5.456,5.716,12.363,9.41,19.273,13.073c5.225,2.77,9.408,6.87,14.728,9.457
			c6.327,3.076,13.954-2.488,14.536-9.127c0.286-3.264-1.767-5.002-4.359-6.425c-1.646-0.904-5.145-1.208-6.306-2.699
			c-4.758-6.111-15.491,4.076-11.436,9.285c2.557,3.283,6.02,4.421,9.771,5.923c4.612,1.847,8.708-7.665,4.435-10.062
			c-1.74-0.976-3.318-2.269-4.84-3.549c-8.084-6.807-18.639-9.489-26.159-17.367C149.373,140.913,139.581,152.246,144.513,157.412
			L144.513,157.412z"/>
	</g>
</g>
<g>
	<g>
		<path fill="#0000FF" d="M135.04,144.147c1.053-0.546,3.547-2.071,4.982-3.772c1.735-2.059,3.827-7.071,0.799-9.12
			c-6.903-4.672-11.294-11.736-17.333-17.333c-4.467-4.141-10.562,3.476-11.074,7.422c-0.174,1.344-0.492,2.654-0.667,4
			c3.691-2.475,7.383-4.948,11.074-7.422c-0.873-0.694-1.792-1.307-2.666-2c-5.273-4.189-11.394,4.253-11.013,9.003
			c0.186,2.318,1.388,4.063,2.475,6.052c3.459,6.328,11.548-1.995,11.971-6.319c0.395-4.035-0.433-7.681-2.818-10.977
			c-2.211-3.056-5.357-5.34-5.91-9.271c-3.671,3.001-7.342,6.002-11.013,9.003c1.021,0.599,1.819,1.183,2.667,2
			c5.034,4.853,14.773-6.543,9.642-11.49c-0.848-0.818-1.646-1.401-2.667-2c-5.389-3.164-11.786,3.511-11.013,9.003
			c0.509,3.619,2.108,6.468,4.428,9.226c2.004,2.383,4.506,4.512,4.179,7.86c3.99-2.106,7.98-4.213,11.971-6.319
			c-0.658-1.204-1.422-1.991-1.525-3.282c-3.671,3.001-7.342,6.002-11.013,9.003c0.873,0.694,1.792,1.307,2.666,2
			c4.699,3.733,10.519-3.142,11.074-7.422c0.174-1.344,0.492-2.654,0.667-4c-3.691,2.475-7.383,4.948-11.074,7.422
			c6.039,5.598,10.43,12.661,17.333,17.333c0.266-3.04,0.533-6.08,0.799-9.12c-0.222,0.264-0.444,0.527-0.667,0.791
			c1.529-1.024,3.058-2.05,4.587-3.074c-1.02,0.302-1.995,0.689-2.938,1.179c-3.098,1.606-5.796,5.449-5.153,9.071
			C128.448,145.195,132.282,145.578,135.04,144.147L135.04,144.147z"/>
	</g>
</g>
<g>
	<g>
		<path fill="#FF0000" d="M105.616,98.31c2.993,4.486,6.433,9.461,12.138,10.461c3.692,0.647,6.951-1.497,8.739-4.71
			c1.208-2.171,2.115-7.516-1.58-8.164c-2.375-0.417-2.797-0.741-4.509-2.392c-1.309-1.262-2.074-2.565-3.353-4.481
			c-2.032-3.045-5.836-2.153-8.314-0.138C106.43,90.761,103.601,95.289,105.616,98.31L105.616,98.31z"/>
	</g>
</g>
<g>
	<g>
		<path fill="#FF0000" d="M141.507,139.273c-0.454,0.792-0.484,0.868-0.091,0.228c-0.607,0.685-0.667,0.758-0.179,0.218
			c-0.391,0.334-0.796,0.648-1.216,0.944c0.95-0.702-1.101,0.545-1.061,0.523c2.411,0.852,4.821,1.704,7.232,2.556
			c-0.174-1.169-0.628-2.32-1.141-3.385c-2.094,3.697-4.188,7.395-6.283,11.092c4.319-1.534,7.893-3.969,12-4.666
			c-0.158-4.088-0.316-8.176-0.475-12.263c-2.953,1.236-5.456,3.501-7.376,6.028c-0.651,0.857-1.233,1.766-1.879,2.627
			c-0.285,0.38-1.523,1.577,0.002,0.147c-0.621,0.49-0.542,0.455,0.235-0.104c0.745-0.232,0.73-0.233-0.045-0.001
			c-3.517,1.034-6.494,4.427-6.818,8.126c-0.293,3.347,2.384,5.743,5.688,4.772c3.643-1.071,6.622-3.234,8.98-6.19
			c0.784-0.983,1.448-2.061,2.209-3.062c0.268-0.353,1.547-1.578,0.077-0.213c0.629-0.492,0.583-0.483-0.137,0.024
			c0.367-0.205,0.747-0.381,1.141-0.528c5.569-2.331,7.961-13.695-0.474-12.263c-2.395,0.407-4.608,1.279-6.831,2.243
			c-0.915,0.396-1.806,0.854-2.7,1.295c-0.443,0.22-0.888,0.434-1.335,0.645c-2.022,0.964,0.983-0.269-1.134,0.483
			c-4.137,1.47-8.513,6.454-6.283,11.092c0.495,1.029,0.038-0.413,0.191,0.615c0.542,3.634,4.547,3.955,7.232,2.556
			c4.469-2.329,8.331-5.636,10.787-10.087c1.415-2.562,1.928-6.987-1.58-8.164C146.772,133.397,143.07,136.441,141.507,139.273
			L141.507,139.273z"/>
	</g>
</g>
<g>
	<g>
		<path fill="#FF0000" d="M130.92,47.324c0-0.444,0-0.889,0-1.333c0-1.539-0.164-3.005-1.432-4.069
			c-1.188-0.997-2.818-1.089-4.256-0.704c-1.806,0.484-3.397,1.657-4.587,3.074c-0.379,0.549-0.758,1.099-1.138,1.648
			c-0.602,1.059-0.966,2.193-1.093,3.403c0,0.444,0,0.889,0,1.333c0,1.539,0.164,3.005,1.432,4.069
			c1.188,0.997,2.818,1.089,4.256,0.704c1.806-0.484,3.397-1.657,4.586-3.074c0.379-0.549,0.759-1.099,1.138-1.648
			C130.429,49.667,130.793,48.533,130.92,47.324L130.92,47.324z"/>
	</g>
</g>
<g>
	<g>
		<path fill="#FF0000" d="M155.826,147.394c-1.51,2.333-0.691,1.075,0.104,0.388c2.239-1.935,4.146-4.941,3.596-8.039
			c-0.488-2.748-3.096-3.863-5.627-3.191c-8.214,2.183-13.982,8.659-20.496,13.668c-2.558,1.967-4.847,6.253-3.121,9.424
			c1.792,3.294,6.001,1.918,8.314,0.139c4.378-3.366,8.685-8.875,14.172-10.332c-0.677-3.744-1.354-7.487-2.031-11.23
			c-2.047,1.769-3.744,3.426-5.23,5.722c-1.606,2.48-1.786,7.034,1.58,8.164C150.715,153.321,154.055,150.131,155.826,147.394
			L155.826,147.394z"/>
	</g>
</g>
</svg>
