<?xml version="1.0" encoding="utf-8"?>
<!-- Generator: Adobe Illustrator 14.0.0, SVG Export Plug-In . SVG Version: 6.00 Build 43363)  -->
<!DOCTYPE svg PUBLIC "-//W3C//DTD SVG 1.1//EN" "http://www.w3.org/Graphics/SVG/1.1/DTD/svg11.dtd">
<svg version="1.1" id="Layer_1" xmlns="http://www.w3.org/2000/svg" xmlns:xlink="http://www.w3.org/1999/xlink" x="0px" y="0px"
	 width="300px" height="300px" viewBox="0 0 300 300" enable-background="new 0 0 300 300" xml:space="preserve">
<g>
	<g>
		<path fill="#00FF00" d="M147.265,44.968c-4.657,7.022-8.321,14.923-6.615,23.503c1.306,6.568,5.517,12.142,7.006,18.679
			c2.143,9.408-1.254,19.815-8.973,25.506c-8.498,6.267-18.421,10.309-26.867,16.726c-4.766,3.621-12.574,9.52-10.9,16.454
			c1.392,5.768,7.44,10.313,11.778,13.82c6.719,5.435,13.958,10.203,20.88,15.368c5.141,3.836,11.729,8.271,14.374,14.363
			c0.126,0.335,0.22,0.679,0.281,1.03c0.605,2.742,4.602-0.03,4.129-2.172c-1.193-5.401-6.164-9.476-10.197-12.846
			c-6.575-5.495-13.775-10.227-20.671-15.301c-5.49-4.039-11.775-8.383-15.438-14.27c-1.449-2.329-1.613-4.125,0.099-6.253
			c3.972-4.937,9.354-8.683,14.684-12.002c7.809-4.862,16.723-8.555,23.463-14.951c5.877-5.578,8.453-15.136,8.044-23.061
			c-0.352-6.803-3.41-12.477-6.036-18.602c-3.872-9.027-0.796-17.012,4.397-24.842C152.533,43.362,148.757,42.718,147.265,44.968
			L147.265,44.968z"/>
	</g>
</g>
<g>
	<g>
		<path fill="#00FF00" d="M163.598,43.415c-6.257,8.679-10.08,18.102-10.267,28.874c-0.16,9.221,2.78,18.101,3.107,27.267
			c0.427,11.934-10.157,17.945-19.198,23.448c-5.188,3.156-10.596,5.984-15.515,9.56c-3.352,2.436-8.404,6.264-10.018,10.232
			c-1.398,3.438,1.665,6.455,4.011,8.521c4.952,4.36,10.999,7.604,16.706,10.843c6.509,3.693,13.137,7.177,19.618,10.921
			c2.646,1.528,9.813,4.559,10.832,7.833c0.841,2.7,4.78-0.078,4.129-2.172c-1.012-3.25-4.892-5.284-7.566-6.979
			c-5.544-3.515-11.388-6.571-17.136-9.73c-2.428-1.334-28.998-15.909-26.909-18.672c7.324-9.688,19.936-14.535,29.813-21.1
			c6.463-4.295,13.781-10.298,15.047-18.474c1.256-8.105-1.023-16.297-2.137-24.288c-1.726-12.387,0.804-23.625,8.164-33.834
			C168.064,43.189,165.423,40.884,163.598,43.415L163.598,43.415z"/>
	</g>
</g>
<g>
	<g>
		<path fill="#0000FF" d="M176.511,40.599c1.676,4.199-2.355,6.831-5.479,8.802c-5.464,3.448-11.482,6.039-17.237,8.951
			c-12.85,6.503-25.495,14.462-32.901,27.216c1.146,0.384,2.293,0.768,3.439,1.151c1.119-2.18-0.504-3.736-2.605-2.56
			c-1.666,0.933-3.067,2.39-4.312,3.81c-4.307,4.912-6.749,11.4-6.886,17.911c-0.235,11.168,6.199,21.093,13.398,29.082
			c15.504,17.202,37.336,28.727,57.878,38.684c1.993,0.967,4.706-3.167,2.387-4.291c-18.508-8.972-36.997-19.163-52.15-33.263
			c-7.594-7.066-14.764-15.891-16.858-26.306c-1.152-5.73-0.206-11.61,2.771-16.633c0.814-1.375,2.48-3.382,3.189-4.053
			c0.434-0.411,0.894-0.794,1.38-1.142c-0.625,0.447-0.104,0.073,0.067-0.016c-0.886,0.46-2.589-0.641-1.699-2.375
			c-1.516,2.954,2.068,3.514,3.439,1.151c8.562-14.743,24.91-21.84,39.505-29.149c7.228-3.619,20.589-9.781,16.485-20.067
			C179.41,35.216,175.683,38.522,176.511,40.599L176.511,40.599z"/>
	</g>
</g>
<g>
	<g>
		<path fill="#0000FF" d="M185.594,40.048c2.967,7.469,3.889,14.93-4.336,18.67c-5.656,2.573-12.16,2.927-18.097,4.6
			c-4.481,1.263-6.596,3.573-9.519,5.623c-5.603,3.93-10.995,8.137-15.891,12.93c-5.405,5.291-10.467,11.518-12.499,18.938
			c-2.436,8.896,2.382,15.088,8.189,21.237c15.435,16.344,33.895,27.966,54.189,37.23c3.336,1.523,10.773,3.726,11.972,7.808
			c0.796,2.711,4.747-0.066,4.129-2.172c-1.181-4.021-5.413-5.946-8.885-7.667c-7.056-3.498-14.303-6.527-21.228-10.303
			c-11.08-6.041-21.212-13.676-30.442-22.254c-7.714-7.17-17.342-14.92-13.186-26.387c4.672-12.89,17.937-19.507,27.699-27.844
			c8.425-7.195,22.265-3.401,30.399-12.018c5.767-6.109,4.142-14.373,1.316-21.487C188.497,34.665,184.77,37.971,185.594,40.048
			L185.594,40.048z"/>
	</g>
</g>
<g>
	<g>
		<path fill="#FF0000" d="M120.54,43.964c-8.168,13.988-20.56,36.836-8.384,52.139c4.064,5.107,10.199,8.021,16.261,10.039
			c8.73,2.906,17.969,4.709,27.065,6.037c4.457,0.65,8.172,1.939,11.486,5.172c4.615,4.503-9.774,12.405-12.418,13.998
			c-4.54,2.736-9.616,4.8-13.414,8.535c-6.273,6.169-14.108,10.872-20.963,16.361c-6.507,5.211-16.176,12.679-16.59,21.847
			c-0.14,3.085,4.066,1.132,4.168-1.117c0.374-8.263,11.201-15.266,17.021-19.808c6.498-5.072,13.779-9.532,19.506-15.512
			c3.036-3.169,10.644-6.119,14.997-8.95c4.7-3.058,11.688-7.551,12.63-13.651c1.688-10.933-17.678-11.604-24.075-12.904
			c-14.754-2.999-35.08-6.892-36.405-25.276c-0.9-12.484,6.529-25.438,12.555-35.758C125.646,42.262,121.921,41.599,120.54,43.964
			L120.54,43.964z"/>
	</g>
</g>
<g>
	<g>
		<path fill="#FF0000" d="M136.134,43.95c-8.8,7.372-13.565,17.602-14.724,28.927c-0.763,7.456-0.566,15.724,6.671,19.66
			c14.462,7.865,32.782,4.684,48.062,10.292c26.541,9.741-15.319,35.974-23.927,42.508c-8.192,6.219-15.987,13.002-23.47,20.052
			c-5.19,4.89-11.153,10.104-14.667,16.411c-0.757,1.359-1.176,2.812-0.652,4.311c0.801,2.29,4.546-0.995,3.812-3.096
			c0.257,0.735,0.613-0.709,1.114-1.427c0.883-1.265,1.901-2.438,2.911-3.601c2.876-3.315,6.036-6.389,9.214-9.411
			c7.452-7.088,15.312-13.789,23.469-20.052c9.419-7.232,19.552-13.299,27.684-22.1c5.118-5.539,9.687-13.391,5.991-20.856
			c-3.012-6.085-11.149-7.997-17.151-9.256c-8.698-1.826-17.61-2.399-26.362-3.904c-5.72-0.983-15.714-2.446-17.925-8.935
			c-1.872-5.493-0.817-12.843,0.5-18.349c1.695-7.089,5.617-13.324,11.183-17.987C139.969,45.376,138.667,41.829,136.134,43.95
			L136.134,43.95z"/>
	</g>
</g>
<path fill="none" stroke="#00FF00" d="M102.013,135.494"/>
<g>
	<g>
		<path fill="#00FF00" d="M147.916,91.891c0,2.556,0,5.111,0,7.666c0,3.092,4.168,1.146,4.168-1.117c0-2.556,0-5.111,0-7.666
			C152.084,87.682,147.916,89.627,147.916,91.891L147.916,91.891z"/>
	</g>
</g>
<g>
	<g>
		<path fill="#00FF00" d="M155.916,93.557c0,2.223,0,4.445,0,6.667c0,3.092,4.168,1.146,4.168-1.117c0-2.223,0-4.445,0-6.667
			C160.084,89.348,155.916,91.293,155.916,93.557L155.916,93.557z"/>
	</g>
</g>
<g>
	<g>
		<path fill="#00FF00" d="M155.27,107.418c0.083,0.675,0.072,1.315-0.133,1.966c-0.068,0.218-0.063,0.167-0.26,0.4
			c0.151-0.18-0.548,0.271-0.557,0.276c0.771,0.647,1.544,1.295,2.315,1.942c0.271-0.914,1.049-1.556,1.705-2.213
			c0.705-0.707,1.155-2.294,0.267-3.04c-0.983-0.825-2.243,0.084-2.948,0.79c-1.286,1.29-2.434,2.675-2.961,4.453
			c-0.492,1.663,0.792,2.658,2.315,1.942c3.378-1.585,4.823-5.124,4.385-8.689c-0.15-1.219-1.539-1.31-2.411-0.852
			C155.911,104.959,155.118,106.184,155.27,107.418L155.27,107.418z"/>
	</g>
</g>
<g>
	<g>
		<path fill="#00FF00" d="M145.659,103.54c-1.521,1.882-2.529,4.097-4,6c-0.61,0.789-1.224,2.236-0.266,3.04
			c0.915,0.768,2.337,0,2.948-0.79c1.475-1.908,2.485-4.125,4-6c0.627-0.776,1.212-2.246,0.267-3.04
			C147.681,101.973,146.287,102.764,145.659,103.54L145.659,103.54z"/>
	</g>
</g>
<g>
	<g>
		<path fill="#00FF00" d="M119.893,154.415c3.371,1.95,6.108,4.875,9.567,6.663c3.461,1.79,7.587,2.409,10.683,4.837
			c1.864,1.461,5.061-2.383,3.214-3.83c-2.795-2.191-6.22-3.02-9.472-4.301c-4.03-1.589-7.061-5.048-10.778-7.199
			C121.047,149.393,117.931,153.28,119.893,154.415L119.893,154.415z"/>
	</g>
</g>
<g>
	<g>
		<path fill="#00FF00" d="M112.143,159.665c5.734,5.119,12.311,9.138,18.25,14c1.828,1.497,5.036-2.339,3.214-3.83
			c-5.939-4.862-12.516-8.881-18.25-14C113.605,154.271,110.376,158.088,112.143,159.665L112.143,159.665z"/>
	</g>
</g>
<text transform="matrix(1 0 0 1 102.667 231.0684)"><tspan x="0" y="0" font-family="'MyriadPro-Regular'" font-size="31">2</tspan><tspan x="15.902" y="0" font-family="'MyriadPro-Regular'" font-size="31" letter-spacing="13">	</tspan><tspan x="36" y="0" font-family="'MyriadPro-Regular'" font-size="31"> 1</tspan><tspan x="58.474" y="0" font-family="'MyriadPro-Regular'" font-size="31" letter-spacing="6">	</tspan><tspan x="71.999" y="0" font-family="'MyriadPro-Regular'" font-size="31">  3</tspan></text>
<g>
	<g>
		<path d="M108.289,206.222c19.208-2.482,39.959-10.347,56.604,3.693c1.803,1.521,5.019-2.309,3.215-3.83
			c-17.32-14.609-38.373-6.894-58.396-4.307C107.585,202.054,105.603,206.568,108.289,206.222L108.289,206.222z"/>
	</g>
</g>
<g>
	<g>
		<path d="M161.312,212.649c2.258-0.322,4.673-0.052,6.581,1.266c1.637,1.129,3.473-0.956,3.691-2.474
			c0.378-2.619-0.007-5.418,0.885-7.937c0.348-0.984-0.066-2.225-1.258-2.227c-1.257-0.001-2.289,1.113-2.68,2.217
			c-1.036,2.929-0.679,6.035-1.115,9.063c1.23-0.824,2.461-1.649,3.691-2.474c-2.838-1.959-6.086-2.211-9.419-1.734
			C159.442,208.672,158.252,213.087,161.312,212.649L161.312,212.649z"/>
	</g>
</g>
</svg>
