<?xml version="1.0" encoding="utf-8"?>
<!-- Generator: Adobe Illustrator 14.0.0, SVG Export Plug-In . SVG Version: 6.00 Build 43363)  -->
<!DOCTYPE svg PUBLIC "-//W3C//DTD SVG 1.1//EN" "http://www.w3.org/Graphics/SVG/1.1/DTD/svg11.dtd">
<svg version="1.1" id="Layer_1" xmlns="http://www.w3.org/2000/svg" xmlns:xlink="http://www.w3.org/1999/xlink" x="0px" y="0px"
	 width="300px" height="300px" viewBox="0 0 300 300" enable-background="new 0 0 300 300" xml:space="preserve">
<g>
	<g>
		<path fill="#00FF00" d="M154.434,54.424c-7.597,11.376-12.475,23.717-14.068,37.326c-1.6,13.672,0.808,27.148,0.758,40.794
			c-0.043,12.066-2.973,24.102-4.168,36.081c-1.002,10.045-1.733,22.19,4.292,30.922c1.461,2.118,5.074-1.267,3.812-3.096
			c-6.193-8.977-4.749-21.456-3.649-31.695c1.193-11.105,3.626-22.139,3.883-33.33c0.291-12.698-1.929-25.26-1.018-38.014
			c0.987-13.826,5.942-26.372,13.599-37.837C159.711,52.824,155.932,52.181,154.434,54.424L154.434,54.424z"/>
	</g>
</g>
<g>
	<g>
		<path fill="#00FF00" d="M171.069,58.559c-0.162,23.362-6.394,46.018-8.131,69.23c-0.864,11.544,0.093,22.782,2.535,34.075
			c2.597,12.005,1.638,24.512,1.596,36.694c-0.011,3.092,4.16,1.146,4.168-1.117c0.038-10.806,0.524-21.596-0.75-32.355
			c-0.711-6.004-2.376-11.837-3.106-17.848c-0.759-6.241-0.709-12.55-0.386-18.817c1.233-23.849,8.076-47.013,8.242-70.979
			C175.259,54.35,171.085,56.297,171.069,58.559L171.069,58.559z"/>
	</g>
</g>
<g>
	<g>
		<path fill="#0000FF" d="M178.546,50.915c2.452,1.964,5.41,3.898,6.867,6.772c1.619,3.193-0.094,8.603-0.595,11.872
			c-0.668,4.356-4.255,8.077-7.159,11.13c-9.783,10.285-22.121,18.359-33.643,26.523c-12.34,8.744-24.95,17.268-36.363,27.225
			c-6.359,5.548-15.896,13.781-15.737,23.121c0.052,3.091,4.207,1.148,4.168-1.117c-0.074-4.331,2.823-7.999,5.501-11.13
			c4.229-4.946,9.344-9.142,14.411-13.19c12.744-10.187,26.4-19.191,39.598-28.768c10.332-7.498,21.759-15.373,29.329-25.849
			c3.311-4.581,4.134-9.026,4.866-14.572c1.034-7.837-2.148-11.136-8.028-15.847C179.914,45.606,176.712,49.445,178.546,50.915
			L178.546,50.915z"/>
	</g>
</g>
<g>
	<g>
		<path fill="#0000FF" d="M189.992,42.048c4.816,6.667,10.955,13.072,14.816,20.371c2.218,4.192-1.696,9.889-3.235,13.709
			c-1.341,3.33-2.196,6.944-4.112,9.999c-1.633,2.603-3.972,4.869-6.175,6.979c-6.206,5.94-13.2,11.079-20.15,16.102
			c-12.89,9.315-26.668,17.516-39.173,27.349c-5.726,4.503-10.416,10.406-14.585,16.325c-3.819,5.422-9.188,13.143-7.872,20.205
			c0.512,2.748,4.529-0.021,4.128-2.172c-1.439-7.727,7.301-17.363,11.767-22.78c4.282-5.195,9.156-9.192,14.614-13.061
			c14.421-10.223,29.409-19.625,43.335-30.54c5.521-4.327,11.014-8.94,15.477-14.384c4.348-5.302,5.913-12.245,8.521-18.471
			c1.652-3.946,3.258-7.703,1.5-11.88c-1.031-2.45-2.896-4.621-4.481-6.72c-3.545-4.693-7.117-9.358-10.562-14.126
			C192.295,36.863,188.695,40.252,189.992,42.048L189.992,42.048z"/>
	</g>
</g>
<g>
	<g>
		<path fill="#FF0000" d="M117.807,39.062c-21.954,10.624-13.629,38.379-16.568,57.641c-1.024,6.71-4.517,13.194-7.191,19.363
			c-3.133,7.229-6.052,14.488-7.696,22.217c-3.797,17.861,1.548,36.307,1.718,54.275c0.029,3.092,4.189,1.147,4.168-1.117
			c-0.159-16.81-4.584-33.721-2.386-50.505c1.905-14.546,10.249-27.066,14.561-40.859c5.425-17.355-6.347-47.251,14.088-57.14
			C120.704,41.871,120.761,37.633,117.807,39.062L117.807,39.062z"/>
	</g>
</g>
<text transform="matrix(0.9196 0 0 1 80 249.9014)"><tspan x="0" y="0" font-family="'MyriadPro-Regular'" font-size="33.7113">1</tspan><tspan x="17.293" y="0" font-family="'MyriadPro-Regular'" font-size="33.7113" letter-spacing="14.137">	</tspan><tspan x="39.149" y="0" font-family="'MyriadPro-Regular'" font-size="33.7113">     2</tspan><tspan x="92.172" y="0" font-family="'MyriadPro-Regular'" font-size="33.7113" letter-spacing="17.399">	</tspan><tspan x="117.444" y="0" font-family="'MyriadPro-Regular'" font-size="33.7113">  3</tspan></text>
<g>
	<g>
		<path d="M197.711,217.778c-7.903-0.727-15.498-2.947-23.296-4.294c-6.539-1.131-13.04-0.942-19.573,0.095
			c-11.535,1.832-20.641,9.011-29.708,15.827c-2.215,1.665-0.897,5.164,1.731,3.188c9.396-7.064,18.146-13.532,30.127-15.082
			c13.462-1.742,26.058,3.492,39.296,4.71C198.475,222.423,200.521,218.037,197.711,217.778L197.711,217.778z"/>
	</g>
</g>
<g>
	<g>
		<path d="M121.031,222.995c-0.935,3.464-1.375,7.243,0.313,10.553c1.68,3.295,5.604,4.014,8.945,3.674
			c1.249-0.127,2.295-1.014,2.68-2.217c0.285-0.893-0.023-2.352-1.258-2.227c-2.529,0.258-5.125,0.039-6.555-2.326
			c-1.311-2.17-0.807-5.152-0.187-7.447C125.824,219.838,121.671,220.626,121.031,222.995L121.031,222.995z"/>
	</g>
</g>
<g>
	<g>
		<path fill="#FF0000" d="M132.288,47.406c-9.61,7.97-18.422,20.802-17.486,33.878c0.53,7.396,4.08,14.125,6.083,21.165
			c2.356,8.275-0.499,16.752-1.367,25.048c-1.649,15.754,0.163,31.405-4.572,46.717c-3.645,11.785-9.252,25.909-1.698,37.333
			c1.417,2.143,5.041-1.237,3.812-3.096c-7.441-11.254-0.821-25.428,2.656-36.952c4.074-13.503,2.72-27.744,3.674-41.665
			c0.515-7.5,2.692-14.932,2.652-22.433c-0.029-5.296-1.954-10.261-3.748-15.161c-2.753-7.518-4.308-14.234-1.986-22.085
			c2.279-7.707,7.605-14.499,13.711-19.562C136.133,48.841,134.83,45.298,132.288,47.406L132.288,47.406z"/>
	</g>
</g>
</svg>
