<?xml version="1.0" encoding="utf-8"?>
<!-- Generator: Adobe Illustrator 14.0.0, SVG Export Plug-In . SVG Version: 6.00 Build 43363)  -->
<!DOCTYPE svg PUBLIC "-//W3C//DTD SVG 1.1//EN" "http://www.w3.org/Graphics/SVG/1.1/DTD/svg11.dtd">
<svg version="1.1" id="Layer_1" xmlns="http://www.w3.org/2000/svg" xmlns:xlink="http://www.w3.org/1999/xlink" x="0px" y="0px"
	 width="300px" height="300px" viewBox="0 0 300 300" enable-background="new 0 0 300 300" xml:space="preserve">
<g>
	<g>
		<path fill="#00FF00" d="M153.916,41.924c-9.228,14.193-4.88,29.384,1.415,43.788c3.708,8.482,7.896,16.751,10.63,25.623
			c1.894,6.149,4.037,13.097-0.339,18.522c-7.23,8.965-19.536,13.857-28.88,20.244c-5.912,4.041-15.043,11.564-9.648,19.446
			c1.453,2.123,5.067-1.261,3.812-3.096c-5.368-7.842,10.785-15.33,15.79-18.396c8.492-5.199,18.888-10.489,24.016-19.438
			c2.754-4.806,1.581-10.285,0.453-15.41c-1.753-7.964-5.197-15.527-8.551-22.916c-6.781-14.94-15.331-31.726-5.259-47.217
			C159.159,40.301,155.392,39.655,153.916,41.924L153.916,41.924z"/>
	</g>
</g>
<g>
	<g>
		<path fill="#00FF00" d="M168.278,55.809c0.038,14.771,1.278,28.875,5.343,43.098c2.12,7.423,4.303,14.817,6.192,22.304
			c1.579,6.256,1.595,8.412-2.705,13.199c-7.891,8.786-18.423,15.354-27.687,22.569c-5.689,4.431-16.46,11.398-16.856,19.579
			c-0.149,3.084,4.06,1.131,4.168-1.117c0.164-3.378,4.03-6.446,6.297-8.531c4.403-4.049,9.237-7.638,13.997-11.251
			c8.679-6.589,18.567-13.047,25.148-21.896c1.936-2.603,3.437-5.583,3.152-8.896c-0.386-4.488-2.246-9.275-3.423-13.624
			c-1.021-3.773-2.121-7.525-3.218-11.278c-4.399-15.049-6.2-29.56-6.241-45.274C172.438,51.6,168.272,53.545,168.278,55.809
			L168.278,55.809z"/>
	</g>
</g>
<g>
	<g>
		<path fill="#0000FF" d="M175.755,48.165c2.452,1.964,5.41,3.898,6.867,6.772c1.619,3.193-0.094,8.603-0.595,11.872
			c-0.668,4.356-4.255,8.077-7.159,11.13c-9.783,10.285-22.121,18.359-33.643,26.523c-12.34,8.745-24.95,17.268-36.363,27.225
			c-6.359,5.548-15.896,13.781-15.737,23.121c0.052,3.091,4.207,1.148,4.168-1.117c-0.074-4.331,2.823-7.999,5.501-11.13
			c4.229-4.946,9.344-9.142,14.411-13.19c12.744-10.187,26.4-19.191,39.598-28.768c10.332-7.498,21.759-15.373,29.329-25.849
			c3.311-4.581,4.134-9.026,4.866-14.572c1.034-7.837-2.148-11.136-8.028-15.847C177.123,42.856,173.921,46.695,175.755,48.165
			L175.755,48.165z"/>
	</g>
</g>
<g>
	<g>
		<path fill="#0000FF" d="M183.456,39.798c2.077,4.912,4.437,9.633,7.278,14.147c1.575,2.503,3.391,4.872,4.654,7.558
			c1.403,2.984,0.76,6.438,0.05,9.509c-0.945,4.093-2.019,8.718-4.221,12.335c-3.212,5.277-8.569,9.53-13.196,13.493
			c-6.523,5.588-13.391,10.776-20.286,15.893c-12.59,9.343-25.678,18.058-38.008,27.746c-5.658,4.445-10.935,9.714-15.525,15.234
			c-3.57,4.295-3.715,8.161-2.417,13.373c0.681,2.733,4.659-0.042,4.128-2.172c-0.534-2.142-1.329-4.421-0.58-6.593
			c1.226-3.554,5.634-6.85,8.174-9.395c4.453-4.461,9.17-8.281,14.233-12.026c13.621-10.074,27.6-19.652,41.02-30.002
			c6.219-4.796,12.351-9.752,18.006-15.21c3.635-3.508,7.312-7.308,9.318-12.016c2.585-6.068,5.94-15.39,3.58-22.056
			c-1.024-2.891-2.901-5.368-4.568-7.912c-3.108-4.742-5.622-9.786-7.828-15.003C186.303,34.42,182.584,37.736,183.456,39.798
			L183.456,39.798z"/>
	</g>
</g>
<g>
	<g>
		<path fill="#FF0000" d="M132.425,33.375c-9.172,11.448-19.749,25.129-20.808,40.379c-0.612,8.819,3.873,15.983,9.407,22.391
			c11.101,12.851,19.998,25.784,23.001,42.896c0.813,4.632,1.128,9.354,1.273,14.049c0.113,3.677-0.259,7.464,0.927,11.005
			c0.62,1.851,1.838,3.145,3.458,4.171c3.214,2.036,3.775,4.489,3.868,8.294c0.075,3.09,4.224,1.149,4.168-1.117
			c-0.125-5.126-0.929-8.54-5.311-11.316c-3.079-1.951-2.881-5.955-2.893-9.181c-0.016-4.104-0.219-8.205-0.598-12.291
			c-1.606-17.334-9.163-32.7-20.564-45.704c-5.329-6.078-11.168-11.961-12.419-20.302c-2.234-14.89,10.665-30.404,19.172-41.023
			C137.034,33.219,134.366,30.952,132.425,33.375L132.425,33.375z"/>
	</g>
</g>
<g>
	<g>
		<path fill="#FF0000" d="M149.208,35.156c-11.211,9.299-21.44,25.616-16,40.552c4.981,13.676,15.761,24.583,21.171,38.133
			c1.178,2.951,1.915,6.146,1.59,9.327c-0.342,3.342-0.852,6.286-0.093,9.617c1.148,5.043,5.624,8.342,7.836,12.853
			c3.239,6.601,0.165,14.969-0.482,21.867c-0.617,6.569,2.959,12.132,6.575,17.292c1.479,2.108,5.086-1.277,3.812-3.096
			c-3.762-5.366-6.852-10.343-6.029-17.066c0.804-6.576,2.591-13.225,0.793-19.794c-1.237-4.521-4.794-7.559-7.169-11.428
			c-3.254-5.3-0.325-11.491-1.369-17.253c-2.299-12.672-12.101-23.948-18.452-34.79c-3.434-5.863-6.018-11.307-5.335-18.268
			c0.952-9.708,7.598-18.717,14.883-24.759C153.054,36.591,151.751,33.048,149.208,35.156L149.208,35.156z"/>
	</g>
</g>
<text transform="matrix(0.9196 0 0 1 84 239.0068)" font-family="'MyriadPro-Regular'" font-size="33.7113">3     1      2</text>
<g>
	<g>
		<path d="M178.193,214.854c-12.804-4.935-26.171-10.878-40.167-10.558c-13.927,0.319-24.049,9.667-30.746,21.128
			c-1.667,2.853,2.058,3.517,3.439,1.15c6.886-11.783,16.641-18.61,30.534-17.738c11.94,0.749,23.538,6.064,34.553,10.309
			C177.895,219.95,180.578,215.773,178.193,214.854L178.193,214.854z"/>
	</g>
</g>
<g>
	<g>
		<path d="M101.916,220.559c-0.402,4.112-0.225,9.139,3.037,12.142c3.543,3.262,8.849,0.19,11.913-2.106
			c2.218-1.662,0.899-5.159-1.731-3.188c-2.101,1.574-5.435,3.55-7.541,0.888c-1.887-2.386-1.787-6.009-1.509-8.853
			C106.384,216.38,102.133,218.337,101.916,220.559L101.916,220.559z"/>
	</g>
</g>
<g>
	<g>
		<path fill="#00FF00" d="M143.68,149.271c1.636-0.968,3.332-1.835,5.132-2.455c1.167-0.401,2.161-1.434,2.272-2.708
			c0.095-1.075-0.798-1.969-1.896-1.591c-2.167,0.746-4.231,1.712-6.202,2.879c-1.011,0.598-1.94,1.77-1.717,3.023
			C141.475,149.578,142.777,149.806,143.68,149.271L143.68,149.271z"/>
	</g>
</g>
<g>
	<g>
		<path fill="#00FF00" d="M160.341,139.792c1-1,2-2,3-3c0.706-0.706,1.155-2.294,0.267-3.04c-0.983-0.825-2.242,0.085-2.948,0.79
			c-1,1-2,2-3,3c-0.706,0.706-1.155,2.294-0.267,3.04C158.376,141.407,159.635,140.497,160.341,139.792L160.341,139.792z"/>
	</g>
</g>
<g>
	<g>
		<path fill="#00FF00" d="M165.198,149.261c1.157-1.14,2.188-1.991,3.481-2.656c1.033-0.531,1.932-1.819,1.718-3.023
			s-1.491-1.325-2.411-0.852c-1.678,0.862-3.179,2.022-4.519,3.344c-0.777,0.766-1.661,2.002-1.041,3.142
			C162.982,150.236,164.494,149.955,165.198,149.261L165.198,149.261z"/>
	</g>
</g>
<g>
	<g>
		<path fill="#00FF00" d="M145.533,164.261c1.78-1.496,3.466-3.138,5.481-4.323c1.012-0.596,1.94-1.771,1.718-3.023
			c-0.206-1.16-1.508-1.384-2.411-0.852c-2.392,1.407-4.405,3.234-6.519,5.011c-0.827,0.695-1.631,2.055-1.04,3.142
			C143.344,165.285,144.784,164.891,145.533,164.261L145.533,164.261z"/>
	</g>
</g>
</svg>
