<?xml version="1.0" encoding="utf-8"?>
<!-- Generator: Adobe Illustrator 14.0.0, SVG Export Plug-In . SVG Version: 6.00 Build 43363)  -->
<!DOCTYPE svg PUBLIC "-//W3C//DTD SVG 1.1//EN" "http://www.w3.org/Graphics/SVG/1.1/DTD/svg11.dtd">
<svg version="1.1" id="Layer_1" xmlns="http://www.w3.org/2000/svg" xmlns:xlink="http://www.w3.org/1999/xlink" x="0px" y="0px"
	 width="300px" height="300px" viewBox="0 0 300 300" enable-background="new 0 0 300 300" xml:space="preserve">
<g>
	<g>
		<path d="M128.634,44.906c-9.61,7.97-18.422,20.802-17.486,33.878c0.53,7.396,4.08,14.125,6.083,21.165
			c2.356,8.275-0.499,16.752-1.367,25.048c-1.649,15.754,0.163,31.405-4.572,46.717c-3.645,11.785-9.252,25.909-1.698,37.333
			c1.417,2.143,5.041-1.237,3.812-3.096c-7.441-11.254-0.821-25.428,2.656-36.952c4.074-13.503,2.72-27.745,3.674-41.666
			c0.515-7.5,2.692-14.932,2.652-22.433c-0.029-5.296-1.954-10.261-3.748-15.161c-2.753-7.518-4.308-14.234-1.986-22.085
			c2.279-7.707,7.605-14.499,13.711-19.562C132.479,46.341,131.176,42.798,128.634,44.906L128.634,44.906z"/>
	</g>
</g>
<g>
	<g>
		<path d="M150.78,51.924c-7.597,11.376-12.475,23.717-14.068,37.326c-1.6,13.672,0.808,27.148,0.758,40.794
			c-0.043,12.066-2.973,24.102-4.168,36.081c-1.002,10.045-1.733,22.19,4.292,30.922c1.461,2.118,5.074-1.267,3.812-3.096
			c-6.193-8.977-4.749-21.456-3.649-31.695c1.193-11.105,3.626-22.139,3.883-33.33c0.291-12.698-1.929-25.26-1.018-38.014
			c0.987-13.826,5.942-26.372,13.599-37.837C156.058,50.324,152.278,49.681,150.78,51.924L150.78,51.924z"/>
	</g>
</g>
<g>
	<g>
		<path d="M167.416,56.059c-0.162,23.362-6.394,46.018-8.131,69.23c-0.864,11.544,0.093,22.782,2.535,34.075
			c2.598,12.005,1.638,24.512,1.596,36.694c-0.011,3.092,4.16,1.146,4.168-1.117c0.038-10.806,0.524-21.596-0.75-32.355
			c-0.711-6.004-2.376-11.837-3.106-17.848c-0.759-6.241-0.709-12.55-0.386-18.816c1.233-23.85,8.076-47.013,8.242-70.98
			C171.605,51.85,167.432,53.797,167.416,56.059L167.416,56.059z"/>
	</g>
</g>
<g>
	<g>
		<path d="M175.789,48.721c9.067,1.083,11.279,11.66,12.165,19.146c1.255,10.6,0.104,21.533-1.254,32.066
			c-1.271,9.849-3.285,19.247-2.441,29.262c1.446,17.177,9.211,33.081,10.177,50.391c0.151,2.712,4.248-0.027,4.129-2.172
			c-0.996-17.842-8.822-34.297-10.316-52.041c-0.902-10.717,2.152-21.749,3.314-32.374c1.464-13.395,5.456-46.357-14.352-48.721
			C175.032,44.019,172.982,48.386,175.789,48.721L175.789,48.721z"/>
	</g>
</g>
<g>
	<g>
		<path d="M182.893,40.415c22.32,15.34,21.3,41.062,20.96,65.331c-0.19,13.606,1.763,26.233,5.023,39.453
			c2.061,8.353,4.589,17.103,4.526,25.773c-0.058,7.947-0.72,15.785,1.033,23.613c0.614,2.741,4.608-0.032,4.129-2.172
			c-1.882-8.4-0.333-16.571-1-25c-0.656-8.288-2.574-16.334-4.56-24.387c-1.949-7.907-3.963-15.863-4.662-23.998
			c-0.521-6.06-0.367-12.174-0.261-18.247c0.425-24.099-0.099-49.162-21.975-64.197C184.146,35.237,180.984,39.103,182.893,40.415
			L182.893,40.415z"/>
	</g>
</g>
<g>
	<g>
		<path d="M114.153,36.562c-21.954,10.624-13.629,38.379-16.568,57.641c-1.024,6.71-4.517,13.194-7.191,19.363
			c-3.133,7.229-6.052,14.487-7.696,22.217c-3.797,17.861,1.548,36.307,1.718,54.275c0.029,3.092,4.189,1.147,4.168-1.117
			c-0.159-16.81-4.584-33.721-2.386-50.505c1.905-14.546,10.249-27.066,14.561-40.859c5.425-17.355-6.347-47.251,14.088-57.14
			C117.051,39.371,117.107,35.133,114.153,36.562L114.153,36.562z"/>
	</g>
</g>
<text transform="matrix(-0.0397 1.1887 -0.9994 -0.0334 78.3047 212.7715)" fill="#FF0000" font-family="'MyriadPro-Regular'" font-size="56.7252">]</text>
<text transform="matrix(-0.0177 1.1893 -0.9999 -0.0148 134.6714 212.5742)" fill="#00FF00" font-family="'MyriadPro-Regular'" font-size="56.7252">]</text>
<text transform="matrix(-0.0397 1.1887 -0.9994 -0.0334 191.3047 212.2979)" fill="#0000FF" font-family="'MyriadPro-Regular'" font-size="56.7252">]</text>
<text transform="matrix(1 0 0 1 76 253)"><tspan x="0" y="0" font-family="'MyriadPro-Regular'" font-size="31">1</tspan><tspan x="15.902" y="0" font-family="'MyriadPro-Regular'" font-size="31" letter-spacing="13">	</tspan><tspan x="36" y="0" font-family="'MyriadPro-Regular'" font-size="31">     2</tspan><tspan x="84.762" y="0" font-family="'MyriadPro-Regular'" font-size="31" letter-spacing="16">	</tspan><tspan x="108" y="0" font-family="'MyriadPro-Regular'" font-size="31">  3</tspan></text>
</svg>
